<svg width="1880" height="8277" viewBox="0 0 1880 8277" fill="none" xmlns="http://www.w3.org/2000/svg">
<path d="M275.351 10C403.184 37.5 758.24 265.5 771.351 501.5C775.351 573.5 649.72 911.716 402.351 780C248.351 698 401.041 352.584 792.351 457.5C999.351 513 907.351 631 1295.35 803C1381.35 841.124 1423.13 861.5 1423.13 861.5C1423.13 861.5 1575.35 914.5 1772.85 864C2026.64 799.106 1720.88 518.446 1524.35 745.5C1472.85 805 1471.35 809 1399.85 887C1232.5 1069.56 1144.65 969.5 1045.85 1343.5C947.051 1717.5 491.018 1957.67 275.351 2031C12.351 2077.5 -285.649 2234.9 626.351 2492.5C1766.35 2814.5 379.851 3037.5 792.351 3549.5C1204.85 4061.5 1947.85 3996 1452.35 4136C956.851 4276 -18.1487 4333.5 626.351 4994.5C1270.85 5655.5 1732.85 5597.5 1551.35 6027C1524.18 6091.83 1437.15 6232.8 1306.35 6278C1001.85 6386.33 381.151 6661.6 334.351 6896C275.851 7189 1417.85 7140 1715.35 7392.5C2012.85 7645 1522.85 7807 1435.35 8069C1398.01 8180.82 1289.52 8245 1250.35 8267.5" stroke="url(#paint0_linear_671_6)" stroke-width="20"/>
<defs>
<linearGradient id="paint0_linear_671_6" x1="865.724" y1="10" x2="865.724" y2="8126.5" gradientUnits="userSpaceOnUse">
<stop stop-color="#587FFE"/>
<stop offset="0.211467" stop-color="#587FFE"/>
<stop offset="0.247466" stop-color="#2CB4E0"/>
<stop offset="0.360893" stop-color="#5DE8F0"/>
<stop offset="0.571" stop-color="#8CFDFD"/>
<stop offset="0.742434" stop-color="#587FFE"/>
<stop offset="0.79775" stop-color="#9341FF"/>
<stop offset="1" stop-color="#9341FF"/>
</linearGradient>
</defs>
</svg>
